<svg xmlns="http://www.w3.org/2000/svg" fill="none" viewBox="0 0 83 24"><g fill="#003D8F" clip-path="url(#ionos_svg-clip0_2056_7809)"><path d="M76.332 23.997a6 6 0 0 1-1.215-.123 6.3 6.3 0 0 1-4.148-2.96l-.023-.041a1.856 1.856 0 0 1 .673-2.454c.28-.168.6-.256.926-.256a1.84 1.84 0 0 1 1.594.932l.062.104.195.262.26.262a2.55 2.55 0 0 0 1.186.573 2.6 2.6 0 0 0 2.046-.466 2.47 2.47 0 0 0 1.036-1.848A2.54 2.54 0 0 0 78.213 16s-5.99-6.151-6.12-6.323l-.296-.437a5.8 5.8 0 0 1-.9-3.671c.065-.894.33-1.761.777-2.538l.26-.454A5.5 5.5 0 0 1 73.744.94l.295-.21a6.04 6.04 0 0 1 4.525-.52 6.02 6.02 0 0 1 3.596 2.786 1.78 1.78 0 0 1 .188 1.38 1.82 1.82 0 0 1-.867 1.12c-.27.16-.58.243-.894.242a1.83 1.83 0 0 1-1.585-.93 2.38 2.38 0 0 0-1.601-1.129 2.5 2.5 0 0 0-1.95.437 2.37 2.37 0 0 0-.909 1.726 2.4 2.4 0 0 0 .65 1.852l5.63 5.785a6.2 6.2 0 0 1 1.245 6.744 6.2 6.2 0 0 1-2.302 2.75 6.24 6.24 0 0 1-3.443 1.025zm-17.808-.003a6.07 6.07 0 0 1-4.277-1.769 6.03 6.03 0 0 1-1.774-4.263V6.032a6.02 6.02 0 0 1 1.772-4.265A6.05 6.05 0 0 1 58.525 0a6.07 6.07 0 0 1 4.278 1.767 6.03 6.03 0 0 1 1.773 4.265v11.93a6.03 6.03 0 0 1-1.774 4.263 6.07 6.07 0 0 1-4.278 1.768m0-20.352a2.4 2.4 0 0 0-1.694.701 2.4 2.4 0 0 0-.703 1.689v11.93a2.36 2.36 0 0 0 .694 1.697 2.37 2.37 0 0 0 1.703.692c.636 0 1.245-.253 1.694-.7.45-.448.703-1.056.703-1.689V6.032a2.42 2.42 0 0 0-.71-1.68 2.43 2.43 0 0 0-1.687-.71M35.02 12.306v9.884c0 .482-.192.945-.535 1.286a1.828 1.828 0 0 1-3.116-1.286V4.749zm9.859 6.947V1.82a1.82 1.82 0 0 0-.562-1.24 1.832 1.832 0 0 0-3.093 1.239v9.875zm-10.03-18.22V.996a1.9 1.9 0 0 0-1.654-.972 1.7 1.7 0 0 0-.367.04 1.774 1.774 0 0 0-1.442 1.77v.418L41.41 22.996a1.88 1.88 0 0 0 1.624.997q.212 0 .419-.052a1.79 1.79 0 0 0 1.426-1.751v-.412S35.118 1.587 34.849 1.033M17.67 23.994a6.07 6.07 0 0 1-4.277-1.768 6.03 6.03 0 0 1-1.774-4.264V6.032c0-1.6.638-3.134 1.773-4.265a6.06 6.06 0 0 1 8.558 0 6.02 6.02 0 0 1 1.772 4.265v11.93c0 1.6-.638 3.133-1.773 4.264a6.07 6.07 0 0 1-4.278 1.768m0-20.352a2.4 2.4 0 0 0-1.695.7 2.38 2.38 0 0 0-.701 1.69v11.93c0 .634.252 1.241.702 1.69a2.4 2.4 0 0 0 3.39 0c.45-.449.702-1.056.702-1.69V6.032a2.42 2.42 0 0 0-.711-1.68 2.43 2.43 0 0 0-1.686-.71M1.985 23.984A1.98 1.98 0 0 1 .142 22.75 2 2 0 0 1 0 21.983V1.953C.01 1.432.225.936.6.573A2 2 0 0 1 1.998.01a1.95 1.95 0 0 1 1.949 1.6v.087q.028.16.026.324v19.975a1.97 1.97 0 0 1-1.225 1.838c-.242.1-.501.15-.763.15"/></g><defs><clipPath id="ionos_svg-clip0_2056_7809"><path fill="#fff" d="M0 0h82.588v24H0z"/></clipPath></defs></svg>