<?xml version="1.0" standalone="no"?>
<!DOCTYPE svg PUBLIC "-//W3C//DTD SVG 20010904//EN"
 "http://www.w3.org/TR/2001/REC-SVG-20010904/DTD/svg10.dtd">
<svg version="1.0" xmlns="http://www.w3.org/2000/svg"
 width="700.000000pt" height="700.000000pt" viewBox="0 0 700.000000 700.000000"
 preserveAspectRatio="xMidYMid meet">
<metadata>
Created by potrace 1.14, written by Peter Selinger 2001-2017
</metadata>
<g transform="translate(0.000000,700.000000) scale(0.100000,-0.100000)"
fill="#000000" stroke="none">
<path d="M3263 6989 c-817 -52 -1603 -402 -2198 -981 -935 -907 -1284 -2241
-918 -3503 19 -66 55 -174 80 -240 47 -123 187 -425 198 -425 7 0 387 219 398
230 5 4 -7 39 -26 77 -136 268 -239 597 -289 918 -30 191 -33 654 -5 840 71
473 222 875 467 1249 458 696 1164 1167 1980 1321 117 22 322 45 397 45 l63 0
0 240 c0 186 -3 240 -12 239 -7 -1 -68 -5 -135 -10z"/>
<path d="M3590 6759 l0 -239 63 0 c146 0 466 -51 657 -105 406 -115 772 -306
1110 -578 112 -90 345 -328 440 -447 301 -378 516 -841 604 -1298 45 -236 51
-304 50 -602 0 -242 -3 -306 -22 -425 -50 -322 -155 -653 -292 -925 -17 -35
-28 -66 -23 -70 10 -11 392 -230 399 -230 8 0 138 274 177 375 225 578 294
1181 206 1790 -108 750 -447 1425 -988 1966 -465 464 -1017 775 -1651 928
-213 52 -391 77 -662 94 l-68 5 0 -239z"/>
<path d="M3302 6329 c-1234 -84 -2272 -967 -2561 -2179 -99 -414 -99 -886 0
-1300 155 -653 522 -1214 1056 -1616 367 -277 793 -459 1251 -533 441 -72 921
-34 1342 106 715 238 1308 750 1645 1422 297 593 377 1281 223 1926 -193 814
-740 1505 -1487 1879 -348 175 -697 269 -1096 296 -167 11 -196 11 -373 -1z
m243 -417 c113 9 191 2 247 -24 105 -49 188 -158 204 -268 5 -37 16 -54 62
-100 160 -160 243 -399 214 -618 -10 -76 -28 -143 -57 -214 -5 -13 3 -22 32
-37 55 -28 80 -56 743 -821 562 -648 605 -701 646 -785 60 -125 87 -244 82
-365 -3 -64 -10 -106 -21 -127 -17 -32 -19 -33 -84 -33 l-66 0 21 23 c53 56
64 140 36 275 -33 160 -77 235 -260 442 -70 80 -350 400 -621 712 -397 456
-502 571 -537 588 -24 11 -51 29 -61 39 -27 31 -30 89 -6 144 34 79 54 201 48
287 -13 163 -81 306 -202 426 -38 37 -67 74 -70 91 -26 133 -53 180 -130 228
-44 27 -55 30 -122 27 -90 -3 -133 -3 -225 0 -59 2 -81 -2 -114 -19 -80 -42
-120 -108 -139 -223 -4 -27 -24 -56 -85 -119 -182 -189 -234 -424 -150 -673
31 -91 32 -99 19 -134 -11 -30 -28 -46 -76 -74 -54 -31 -110 -92 -474 -510
-227 -261 -511 -587 -631 -724 -181 -207 -224 -262 -257 -330 -48 -99 -71
-190 -73 -293 -3 -95 21 -149 84 -190 l42 -28 455 -5 c251 -3 443 -7 426 -8
-16 -1 -250 -7 -520 -12 l-489 -10 -24 23 c-109 102 -106 344 7 572 43 87 73
127 224 300 96 110 383 441 639 735 363 419 475 542 514 565 l51 31 -18 46
c-105 268 -36 591 172 799 47 47 57 63 62 102 13 94 81 195 163 243 74 44 121
54 209 48 44 -3 94 -4 110 -2z m-91 -314 c7 -13 17 -36 20 -53 23 -100 26
-105 56 -105 27 0 29 3 45 72 9 40 24 81 32 90 21 24 56 23 78 -2 18 -19 18
-23 1 -101 -10 -45 -16 -82 -14 -83 2 -1 28 -13 58 -26 30 -14 80 -50 111 -80
138 -135 177 -347 94 -510 l-25 -50 -380 0 -380 0 -14 23 c-28 42 -48 112 -53
187 -13 179 78 340 237 425 39 20 70 37 70 38 0 1 -7 27 -15 57 -19 71 -19
105 1 124 23 23 61 20 78 -6z m150 -980 c55 -16 138 -99 154 -154 21 -72 15
-108 -28 -175 -21 -33 -42 -69 -45 -79 -3 -10 -27 -29 -53 -42 -62 -30 -151
-31 -208 -1 -38 20 -47 32 -132 175 -33 53 13 180 84 234 67 51 147 66 228 42z
m-572 -269 c63 -32 150 -125 186 -199 19 -38 37 -96 43 -140 l12 -75 -289
-627 -289 -627 -306 -1 c-168 0 -408 -3 -534 -7 l-228 -6 6 64 c7 87 34 163
82 232 22 32 308 365 635 741 539 619 597 683 617 675 12 -4 41 -18 65 -30z
m1348 -274 c134 -154 401 -461 594 -682 391 -449 427 -500 446 -638 5 -38 6
-73 2 -77 -4 -4 -245 -4 -535 0 l-528 7 -285 615 -285 615 4 77 c3 64 10 90
40 152 46 91 126 174 210 216 58 29 62 30 78 13 9 -10 126 -144 259 -298z
m-759 -41 c5 -3 9 -39 9 -80 0 -74 2 -81 80 -248 44 -95 80 -176 80 -179 0 -4
-119 -7 -265 -7 -146 0 -265 2 -265 3 0 2 37 82 82 178 81 171 82 175 83 252
0 75 1 78 25 83 14 3 30 8 35 10 13 5 124 -4 136 -12z m354 -903 c52 -113 95
-208 95 -213 0 -4 -246 -8 -546 -8 -309 0 -544 4 -542 9 2 5 46 101 98 215
l95 206 353 -2 352 -3 95 -204z m215 -466 c34 -78 80 -130 125 -141 14 -3 25
-12 25 -18 0 -16 -28 -111 -47 -158 l-15 -38 -748 0 -748 0 -20 48 c-23 53
-42 119 -42 144 0 9 10 20 23 24 48 15 76 47 116 129 l40 85 629 0 629 0 33
-75z m-180 -593 c0 -179 -109 -350 -272 -427 -197 -93 -414 -53 -560 103 -86
92 -128 194 -128 314 l0 68 480 0 480 0 0 -58z"/>
<path d="M726 1800 c-104 -60 -194 -114 -199 -119 -14 -14 108 -195 247 -371
113 -143 376 -409 516 -522 529 -425 1140 -682 1820 -764 198 -24 581 -24 780
0 672 80 1276 332 1805 753 149 118 410 381 531 533 121 153 259 355 250 368
-6 9 -388 232 -398 232 -3 0 -35 -44 -71 -97 -213 -317 -511 -613 -831 -827
-863 -575 -1963 -668 -2912 -244 -505 226 -961 610 -1271 1071 -36 53 -68 97
-72 97 -3 0 -91 -50 -195 -110z"/>
</g>
</svg>
