<?xml version="1.0" standalone="no"?>
<!DOCTYPE svg PUBLIC "-//W3C//DTD SVG 20010904//EN"
 "http://www.w3.org/TR/2001/REC-SVG-20010904/DTD/svg10.dtd">
<svg version="1.0" xmlns="http://www.w3.org/2000/svg"
 width="1616.000000pt" height="1616.000000pt" viewBox="0 0 1616.000000 1616.000000"
 preserveAspectRatio="xMidYMid meet">
<metadata>
Created by potrace 1.14, written by Peter Selinger 2001-2017
</metadata>
<g transform="translate(0.000000,1616.000000) scale(0.100000,-0.100000)"
fill="#000000" stroke="none">
<path d="M5010 9708 l0 -481 -55 61 c-90 99 -188 141 -338 146 -283 9 -438
-125 -507 -439 -20 -89 -25 -194 -25 -510 0 -360 8 -468 45 -600 13 -44 61
-157 70 -165 3 -3 16 -20 29 -38 34 -49 113 -108 178 -132 82 -31 235 -38 336
-16 116 26 219 102 282 211 8 13 10 -7 10 -76 -1 -52 0 -99 2 -104 2 -7 89
-10 241 -9 130 1 240 2 244 3 3 0 6 593 6 1316 l0 1315 -259 0 -259 0 0 -482z
m-121 -613 c16 -8 39 -28 50 -44 59 -83 70 -179 67 -566 -4 -340 -6 -379 -31
-477 -32 -124 -91 -175 -191 -165 -61 6 -96 26 -122 71 -37 63 -56 142 -67
286 -7 80 -6 586 1 645 9 81 41 178 71 213 49 56 152 74 222 37z"/>
<path d="M13020 9987 l0 -202 258 0 257 0 2 203 2 202 -260 0 -259 0 0 -203z"/>
<path d="M14315 9866 c-66 -29 -136 -60 -155 -69 -19 -9 -80 -36 -135 -60
l-100 -45 0 -143 0 -144 -104 -5 -104 -5 0 -145 c1 -80 2 -150 2 -157 1 -9 32
-13 103 -15 l103 -3 1 -595 c0 -452 4 -606 13 -640 67 -235 282 -332 656 -296
113 11 103 -5 103 171 l0 155 -82 0 c-102 0 -144 22 -162 85 -9 28 -12 197
-13 583 l-1 542 125 0 c76 0 125 -4 126 -10 2 -12 2 -14 18 -70 7 -25 15 -52
17 -60 1 -8 17 -67 34 -130 18 -63 33 -122 35 -130 2 -8 16 -58 30 -110 26
-95 75 -275 120 -445 13 -49 33 -124 45 -165 11 -41 23 -82 25 -90 3 -17 33
-126 64 -243 12 -42 19 -87 17 -100 -2 -12 -30 -110 -61 -217 -31 -107 -70
-240 -85 -295 -16 -55 -33 -112 -39 -127 -10 -26 -9 -28 17 -29 33 -1 493 -1
508 0 6 1 16 18 22 39 14 45 171 603 177 629 2 10 36 131 75 268 39 138 77
273 84 300 13 48 149 532 261 930 29 105 63 226 75 270 12 43 24 85 27 92 4
10 -44 13 -245 13 -230 0 -251 -1 -255 -17 -7 -23 -26 -111 -31 -143 -2 -14
-16 -78 -30 -142 -14 -64 -28 -127 -30 -140 -69 -335 -185 -850 -189 -838 -5
14 -31 141 -42 200 -2 14 -16 81 -30 150 -15 69 -28 136 -31 150 -2 14 -7 39
-11 55 -9 40 -8 34 -18 90 -4 28 -10 55 -11 60 -4 14 -25 115 -75 363 l-43
212 -338 0 -338 0 -2 260 -3 259 -120 -53z"/>
<path d="M862 9424 c-118 -20 -207 -75 -284 -174 l-27 -35 -1 93 0 92 -259 0
-259 0 -1 -920 c0 -506 3 -921 7 -921 4 -1 121 -2 260 -3 l252 -1 0 680 c0
735 2 769 53 823 71 76 214 75 279 -2 42 -50 47 -97 48 -484 0 -202 1 -513 3
-692 l2 -325 249 0 c158 0 250 4 252 10 2 5 5 323 6 705 l3 695 27 55 c31 63
69 89 138 94 51 4 122 -14 144 -37 26 -26 56 -92 62 -138 4 -24 7 -345 8 -714
l1 -670 255 0 255 0 0 790 0 790 -33 67 c-87 178 -292 260 -552 224 -100 -14
-196 -64 -283 -149 -50 -48 -73 -64 -79 -55 -4 7 -8 15 -8 18 -2 17 -88 97
-137 126 -106 64 -235 83 -381 58z"/>
<path d="M3038 9423 c-356 -51 -532 -266 -563 -688 -6 -86 -6 -413 0 -475 17
-171 28 -237 56 -322 69 -210 198 -331 417 -390 100 -27 368 -34 482 -13 343
62 494 259 535 700 8 81 9 466 1 510 -5 30 -14 101 -21 161 -7 60 -59 197 -98
257 -96 150 -250 238 -455 263 -96 12 -262 10 -354 -3z m284 -339 c107 -55
133 -165 132 -559 0 -468 -32 -614 -145 -659 -56 -23 -134 -20 -186 5 -63 31
-92 85 -117 224 -10 55 -18 229 -19 401 -1 440 29 552 158 597 50 17 135 13
177 -9z"/>
<path d="M6177 9424 c-238 -31 -428 -139 -503 -286 -55 -108 -65 -272 -24
-381 24 -64 94 -164 132 -189 14 -9 31 -23 39 -30 29 -29 150 -93 317 -168
210 -95 271 -131 326 -191 49 -54 64 -97 61 -168 -5 -107 -87 -175 -203 -170
-31 1 -69 6 -84 12 -40 13 -85 64 -94 105 -4 21 -8 40 -9 45 -2 4 -3 38 -4 77
l-1 69 -252 -2 -253 -2 0 -80 c1 -44 4 -100 7 -125 31 -211 170 -347 408 -396
90 -19 363 -26 470 -12 59 8 174 44 231 73 134 69 245 210 279 353 29 125 5
284 -58 382 -28 44 -128 150 -141 150 -3 0 -19 12 -36 26 -16 14 -95 57 -175
96 -417 202 -410 198 -454 263 -60 88 -8 237 93 262 42 11 106 8 143 -6 59
-22 93 -107 91 -228 -1 -30 2 -33 31 -34 43 -1 392 -1 439 0 l37 1 0 69 c0
178 -100 336 -265 417 -145 71 -336 95 -548 68z"/>
<path d="M7738 9435 c-2 -1 -30 -5 -63 -9 -93 -9 -123 -16 -198 -43 -201 -72
-323 -223 -371 -457 -26 -124 -31 -196 -31 -441 0 -232 4 -282 26 -410 54
-310 203 -474 484 -534 72 -15 123 -18 250 -16 88 1 171 5 185 9 31 7 83 20
90 21 57 12 171 71 229 119 137 113 216 280 225 476 l1 25 -258 2 c-141 0
-259 -2 -261 -6 -3 -3 -7 -37 -10 -75 -5 -64 -36 -149 -68 -186 -64 -74 -201
-78 -269 -9 -67 69 -95 166 -105 370 -4 95 -3 119 8 120 7 1 229 2 493 3 l480
1 0 155 c-1 178 -8 270 -31 373 -61 282 -212 435 -487 493 -59 12 -309 27
-319 19z m177 -335 c18 -6 49 -29 69 -50 51 -57 70 -132 71 -280 l0 -85 -230
0 -230 0 1 80 c1 132 16 196 61 267 46 75 153 103 258 68z"/>
<path d="M9285 9429 c-189 -23 -307 -73 -406 -170 -146 -144 -202 -354 -203
-754 0 -130 10 -324 19 -380 57 -341 187 -503 460 -576 117 -31 382 -35 515
-8 104 22 253 88 305 136 125 117 194 277 198 465 l2 93 -245 0 c-135 1 -250
0 -255 -2 -6 -2 -12 -30 -13 -62 -8 -193 -91 -311 -226 -319 -148 -8 -208 79
-232 338 -10 109 -11 531 -1 633 19 198 86 280 226 280 146 0 209 -78 225
-278 3 -38 6 -73 6 -77 0 -5 117 -8 260 -8 l260 0 -5 28 c-2 15 -6 56 -9 92
-6 77 -10 96 -32 164 -45 140 -140 255 -261 318 -88 46 -114 54 -240 79 -67
13 -270 17 -348 8z"/>
<path d="M12827 9434 c-1 -1 -26 -4 -55 -8 -134 -16 -265 -102 -324 -213 -13
-24 -25 -43 -28 -43 -3 0 -4 52 -4 115 l2 115 -247 0 -246 0 1 -917 c1 -505 2
-920 3 -923 1 -7 511 -7 512 0 0 3 1 262 2 575 3 645 2 643 79 730 65 73 154
105 308 110 36 2 67 3 70 4 4 1 5 371 1 441 -1 11 -12 16 -36 16 -20 0 -37 -1
-38 -2z"/>
<path d="M10289 9388 c0 -7 -1 -350 -1 -763 0 -523 3 -765 11 -798 34 -143
147 -249 314 -293 80 -21 267 -13 338 15 82 31 147 78 193 138 l41 53 3 -93 3
-92 262 1 c294 2 280 1 273 12 -14 23 -19 272 -20 1012 l-1 815 -258 3 -257 2
0 -647 c-1 -357 -2 -670 -4 -698 -6 -107 -49 -184 -114 -203 -121 -37 -222 12
-253 121 -9 31 -13 230 -13 735 l-1 692 -257 0 c-199 0 -258 -3 -259 -12z"/>
<path d="M13020 8477 l0 -922 255 0 c219 0 256 2 259 15 3 8 4 423 4 923 l-1
907 -258 0 -259 0 0 -923z"/>
<path d="M134 6874 c-54 -19 -93 -61 -115 -126 -16 -45 -18 -80 -16 -233 2
-161 5 -185 25 -230 35 -78 103 -115 212 -115 110 0 176 37 214 120 18 39 21
68 23 210 1 91 -2 188 -7 215 -13 64 -54 123 -105 149 -50 26 -170 31 -231 10z
m154 -111 c31 -27 41 -81 41 -227 0 -200 -19 -256 -87 -258 -72 -2 -91 51 -91
253 0 196 18 249 84 249 18 0 42 -8 53 -17z"/>
<path d="M2299 6881 c-87 -18 -138 -78 -143 -169 -5 -92 27 -145 128 -209 127
-81 145 -95 153 -117 22 -66 -15 -119 -77 -109 -43 6 -66 41 -69 105 -1 14
-12 16 -73 15 l-73 -2 2 -52 c5 -116 74 -173 210 -173 167 0 246 71 237 213
-6 83 -51 142 -152 194 -69 36 -131 91 -137 122 -4 24 10 61 29 73 19 13 73 8
86 -8 8 -8 16 -31 19 -51 l6 -36 70 -1 70 0 -1 51 c-2 65 -31 115 -82 139 -40
19 -145 27 -203 15z"/>
<path d="M4975 6857 c3 -12 12 -53 20 -92 19 -83 46 -203 75 -335 11 -52 28
-129 38 -170 l17 -75 80 -3 81 -3 18 78 c10 43 33 141 51 218 19 77 36 153 39
169 8 45 12 41 26 -26 7 -35 14 -67 16 -73 2 -8 21 -97 39 -185 2 -8 10 -49
19 -90 9 -41 16 -78 16 -82 0 -5 38 -8 85 -8 47 0 85 3 85 6 0 3 34 158 75
345 41 186 75 340 75 342 0 2 -32 3 -72 3 -55 -1 -72 -4 -74 -16 -2 -8 -5 -26
-8 -40 -9 -40 -69 -384 -69 -397 -1 -54 -32 56 -53 192 -3 17 -9 44 -14 60 -5
17 -12 44 -15 60 -2 17 -7 41 -10 55 -3 14 -7 36 -10 49 -2 13 -7 26 -10 30
-4 3 -44 7 -90 8 l-84 1 -6 -31 c-7 -37 -25 -116 -54 -237 -11 -47 -25 -113
-32 -147 -7 -34 -14 -61 -16 -59 -2 1 -15 68 -29 147 -15 79 -34 185 -43 234
l-17 90 -76 2 c-74 2 -76 1 -73 -20z"/>
<path d="M6329 6849 c0 -16 -1 -168 -1 -339 0 -170 1 -314 1 -320 1 -6 30 -10
66 -10 58 0 65 2 65 20 0 18 2 18 36 -5 69 -47 158 -25 190 48 16 34 19 66 19
187 0 197 -21 238 -124 246 -35 2 -54 -3 -81 -20 l-36 -24 1 123 1 123 -68 0
-68 0 -1 -29z m218 -267 c29 -19 39 -230 13 -292 -18 -43 -62 -42 -80 0 -17
41 -18 247 -1 278 12 22 45 29 68 14z"/>
<path d="M7117 6821 c-8 -31 -40 -148 -72 -261 -31 -113 -65 -234 -74 -270
-10 -36 -21 -75 -25 -87 -7 -22 -6 -23 67 -23 73 0 75 1 81 28 4 15 13 50 21
77 l14 51 96 -1 96 0 10 -40 c6 -22 15 -57 20 -77 l10 -38 78 0 79 0 -23 83
c-13 45 -34 123 -48 172 -13 50 -45 169 -72 266 l-48 177 -97 0 -98 0 -15 -57z
m140 -236 c13 -60 27 -117 29 -126 4 -14 -5 -16 -61 -16 -48 0 -65 4 -65 14 0
12 40 189 57 253 5 22 7 23 10 5 3 -11 16 -69 30 -130z"/>
<path d="M8499 6877 c-1 -1 -2 -158 -3 -349 l-1 -348 70 0 70 0 -1 343 c-1
188 -2 345 -3 348 -1 5 -129 11 -132 6z"/>
<path d="M8747 6872 c-3 -6 -2 -49 2 -92 1 -15 5 -15 122 -11 12 1 15 12 15
54 l-2 52 -67 2 c-36 1 -68 -1 -70 -5z"/>
<path d="M10170 6823 c0 -56 -1 -55 60 -55 84 0 80 -3 80 56 l0 54 -70 -1 -70
0 0 -54z"/>
<path d="M11539 6866 c-1 -14 -1 -656 0 -674 1 -10 20 -12 74 -10 l72 3 0 148
c0 124 2 147 15 148 8 0 55 1 105 2 86 2 89 3 88 25 0 12 -1 37 -2 55 l-1 32
-102 0 -103 0 0 85 0 85 98 1 c53 1 103 4 109 7 8 2 12 19 11 38 -1 19 -2 41
-2 50 -1 14 -24 16 -181 16 -127 1 -180 -3 -181 -11z"/>
<path d="M11954 6825 l0 -53 46 -4 c25 -2 57 -2 71 0 25 3 26 6 25 55 l-2 52
-70 2 -70 2 0 -54z"/>
<path d="M14169 6871 c0 -3 -1 -159 -1 -346 l0 -340 68 0 69 0 0 345 0 345
-67 1 c-38 1 -68 -1 -69 -5z"/>
<path d="M14419 6852 c-1 -33 0 -642 0 -659 1 -9 21 -13 69 -13 l67 0 0 348 0
347 -67 2 c-67 1 -68 1 -69 -25z"/>
<path d="M9978 6776 c-67 -29 -68 -30 -68 -67 0 -33 -3 -38 -26 -41 -24 -3
-27 -7 -28 -46 -1 -39 1 -42 27 -42 l27 0 0 -166 0 -166 34 -34 c31 -31 44
-36 101 -37 69 -1 72 0 73 46 2 40 0 43 -20 42 -44 -4 -48 9 -48 166 l0 149
28 1 c15 1 30 1 35 0 4 0 7 19 7 44 0 45 0 45 -35 45 l-34 0 -3 68 -3 68 -67
-30z"/>
<path d="M742 6660 c-16 -10 -32 -24 -35 -32 -3 -7 -6 -1 -6 15 -1 27 -2 27
-66 27 l-65 0 0 -350 0 -351 68 3 67 3 5 125 c3 69 7 120 8 115 3 -17 55 -41
94 -44 67 -4 109 32 133 117 8 26 9 236 1 269 -9 41 -36 88 -58 102 -35 22
-111 22 -146 1z m60 -92 c17 -31 17 -254 0 -285 -16 -30 -56 -30 -76 -1 -20
28 -23 242 -4 283 15 33 62 35 80 3z"/>
<path d="M1139 6669 c-81 -23 -118 -101 -117 -246 2 -155 37 -221 130 -243 84
-21 177 -1 220 47 24 26 50 92 44 110 -4 10 -23 13 -71 12 -36 -1 -66 -6 -66
-10 -7 -45 -21 -69 -46 -75 -40 -10 -65 23 -67 87 l-1 52 128 0 128 -1 -2 63
c-3 104 -38 173 -99 197 -36 14 -139 18 -181 7z m125 -101 c9 -12 16 -37 16
-55 l0 -33 -60 0 c-58 0 -60 1 -60 25 0 15 7 39 15 55 20 38 66 42 89 8z"/>
<path d="M1690 6668 c-13 -5 -27 -14 -31 -20 -4 -6 -12 -7 -18 -4 -6 4 -9 12
-6 17 4 5 -24 9 -67 9 l-73 0 0 -242 0 -243 70 -3 70 -3 0 196 c1 209 2 214
51 215 41 0 44 -19 45 -219 l0 -191 70 0 c48 0 69 4 70 13 0 6 0 101 0 210 0
213 -4 231 -53 259 -28 15 -95 18 -128 6z"/>
<path d="M2779 6668 c-47 -12 -87 -54 -104 -110 -17 -59 -13 -240 7 -288 38
-88 143 -121 264 -85 85 25 116 99 113 261 -2 122 -34 190 -99 216 -34 14
-137 17 -181 6z m115 -91 c38 -28 38 -276 0 -304 -67 -49 -102 29 -92 207 4
64 8 83 24 95 24 18 45 19 68 2z"/>
<path d="M3791 6664 c-19 -8 -40 -22 -47 -32 -12 -15 -13 -14 -14 11 0 27 -1
27 -65 27 l-65 0 0 -245 0 -245 68 0 69 0 1 128 c0 70 1 141 1 159 1 44 37 83
81 86 l35 2 3 63 c3 70 -3 74 -67 46z"/>
<path d="M4020 6673 c-38 -7 -90 -51 -108 -92 -21 -49 -25 -227 -6 -290 25
-87 97 -127 210 -118 74 5 127 34 151 80 18 36 29 107 16 108 -11 1 -105 1
-119 0 -6 -1 -14 -19 -18 -41 -12 -75 -87 -82 -106 -9 -13 49 -11 215 3 247
24 53 93 35 103 -27 l6 -39 67 2 66 1 -2 39 c-3 51 -35 100 -80 121 -36 18
-134 27 -183 18z"/>
<path d="M4467 6666 c-82 -30 -106 -76 -111 -216 -3 -88 12 -176 38 -214 41
-64 184 -84 272 -40 41 21 84 88 84 131 0 22 -4 23 -70 23 -68 0 -70 -1 -70
-25 0 -30 -32 -65 -60 -65 -11 0 -26 10 -34 23 -19 28 -28 117 -12 118 6 0 63
1 126 1 63 0 118 5 121 10 3 5 4 37 2 71 -5 76 -37 145 -80 170 -42 24 -155
31 -206 13z m121 -85 c16 -10 34 -83 23 -94 -5 -5 -32 -7 -62 -5 -44 2 -54 6
-53 21 1 9 2 26 3 36 2 41 54 65 89 42z"/>
<path d="M5967 6665 c-84 -29 -113 -88 -115 -227 -1 -88 14 -166 38 -205 33
-53 166 -79 246 -48 67 26 96 62 109 136 l5 30 -69 -2 c-67 -2 -69 -3 -75 -29
-6 -34 -31 -60 -57 -60 -28 0 -56 53 -55 102 l1 41 128 0 128 0 -2 66 c-3 86
-16 126 -52 161 -46 45 -157 62 -230 35z m134 -113 c9 -18 15 -42 12 -52 -5
-17 -14 -20 -65 -20 l-59 0 5 36 c10 59 23 76 59 72 25 -2 36 -11 48 -36z"/>
<path d="M7733 6660 c-17 -10 -33 -24 -36 -32 -3 -7 -6 -1 -6 15 -1 27 -2 27
-68 27 l-68 0 2 -332 c1 -183 2 -341 2 -351 1 -16 9 -18 69 -15 l67 3 0 121 0
121 26 -20 c37 -27 108 -33 146 -14 52 28 68 75 70 218 3 160 -2 190 -41 235
-27 31 -38 36 -82 39 -37 3 -59 -2 -81 -15z m51 -86 c9 -8 17 -26 17 -40 8
-152 -1 -251 -24 -266 -27 -17 -55 -8 -68 24 -16 40 -17 245 0 276 14 26 52
29 75 6z"/>
<path d="M8210 6669 c-13 -6 -33 -18 -44 -27 -18 -16 -19 -16 -14 6 6 21 4 22
-63 22 l-69 0 0 -350 0 -350 70 0 70 0 0 128 c1 106 3 124 14 110 16 -22 58
-38 97 -38 47 0 87 26 111 73 19 37 21 58 21 178 0 121 -2 141 -22 183 -13 25
-32 51 -43 57 -29 15 -99 20 -128 8z m47 -116 c12 -29 14 -62 11 -143 -5 -116
-17 -150 -52 -150 -43 0 -51 24 -53 158 -3 140 7 172 53 172 19 0 28 -8 41
-37z"/>
<path d="M9101 6670 c-89 -21 -124 -82 -127 -225 -4 -188 42 -262 168 -272
140 -11 228 53 228 166 0 22 0 22 -85 24 -49 0 -50 0 -55 -31 -9 -56 -51 -87
-88 -64 -19 13 -29 59 -31 152 -2 89 10 148 31 162 40 25 88 -10 88 -64 0 -28
0 -28 70 -28 70 0 70 0 70 28 0 43 -41 114 -78 135 -36 21 -134 30 -191 17z"/>
<path d="M9565 6673 c-83 -19 -124 -67 -116 -138 1 -6 29 -10 66 -10 60 0 65
1 65 22 0 68 91 69 102 1 7 -38 -5 -51 -49 -54 -122 -11 -162 -31 -187 -94
-18 -46 -14 -125 8 -168 40 -76 170 -82 220 -10 14 19 16 20 17 5 1 -9 2 -23
3 -29 1 -9 21 -13 65 -13 l65 0 -3 60 c-2 33 -4 123 -5 200 -1 156 -9 181 -67
211 -30 15 -145 26 -184 17z m116 -267 c11 -14 -1 -100 -17 -123 -19 -29 -69
-31 -84 -4 -15 29 -12 83 5 108 18 26 82 39 96 19z"/>
<path d="M10525 6671 c-45 -13 -85 -47 -102 -85 -14 -32 -18 -66 -18 -166 0
-112 3 -129 24 -166 34 -61 71 -78 166 -79 153 0 196 50 200 234 4 152 -18
211 -90 249 -31 16 -143 24 -180 13z m102 -89 c23 -15 34 -67 32 -156 -2 -115
-13 -154 -44 -162 -37 -9 -62 11 -70 56 -11 66 -8 206 6 231 19 37 48 49 76
31z"/>
<path d="M11070 6668 c-13 -5 -33 -16 -42 -25 -17 -15 -18 -15 -18 5 0 20 -5
22 -68 22 l-68 0 1 -245 0 -245 67 0 c67 0 68 0 69 28 0 15 1 103 2 195 2 179
4 186 53 187 40 0 44 -19 45 -219 l1 -191 69 0 69 0 0 213 c0 227 -3 242 -53
269 -28 15 -95 18 -127 6z"/>
<path d="M12392 6669 c-18 -5 -38 -18 -45 -29 -16 -27 -25 -25 -22 5 3 24 2
25 -63 25 l-67 0 0 -245 0 -245 70 0 70 0 -2 152 c-2 200 3 211 117 227 3 1 5
13 4 29 -1 15 -3 42 -3 60 -1 34 -6 36 -59 21z"/>
<path d="M12608 6670 c-48 -14 -86 -49 -103 -95 -21 -53 -24 -218 -6 -282 24
-85 100 -130 206 -121 97 8 158 59 172 142 l5 34 -71 1 c-68 0 -71 0 -71 -23
0 -39 -32 -70 -63 -62 -33 8 -44 28 -49 89 -5 45 -4 47 21 48 14 0 73 1 131 2
l105 2 0 50 c0 57 -18 127 -41 163 -8 13 -32 31 -52 39 -42 18 -144 25 -184
13z m123 -101 c6 -12 12 -37 14 -55 l2 -35 -61 3 c-51 3 -61 6 -60 21 1 9 2
26 3 36 3 49 80 71 102 30z"/>
<path d="M13790 6670 c-61 -17 -100 -66 -100 -124 0 -21 5 -22 67 -21 62 1 66
2 70 25 5 33 21 50 48 50 31 0 48 -23 49 -67 l1 -37 -55 -3 c-71 -5 -120 -19
-145 -41 -61 -51 -65 -187 -7 -245 42 -41 105 -48 161 -16 23 12 41 26 41 31
0 4 5 8 10 8 6 0 10 -11 10 -25 0 -24 2 -25 63 -25 l63 0 -2 195 c-4 223 -11
252 -71 280 -39 19 -161 28 -203 15z m133 -314 c-2 -66 -21 -96 -63 -96 -44 0
-67 81 -35 124 13 17 68 37 90 31 6 -1 9 -28 8 -59z"/>
<path d="M3139 6658 c0 -7 -1 -105 -1 -216 l0 -204 28 -29 c45 -47 136 -51
182 -8 12 11 23 17 23 14 1 -3 2 -11 3 -17 1 -9 22 -13 70 -13 l70 0 -2 235
c0 129 -1 238 -1 243 -1 4 -31 7 -68 7 l-68 0 0 -189 c-1 -202 -5 -221 -51
-221 -44 0 -49 24 -49 224 l0 186 -67 0 c-47 0 -68 -4 -69 -12z"/>
<path d="M8745 6428 l0 -243 70 0 70 0 0 243 0 242 -70 0 -70 0 0 -242z"/>
<path d="M10170 6425 l0 -245 70 0 70 0 0 245 0 245 -70 0 -70 0 0 -245z"/>
<path d="M11955 6425 l0 -245 70 0 70 0 0 245 1 245 -71 0 -70 0 0 -245z"/>
<path d="M12921 6658 c0 -7 26 -116 58 -243 l57 -230 75 -3 75 -3 43 149 c24
83 47 155 51 161 4 7 21 -43 38 -111 18 -68 37 -140 43 -160 l10 -38 72 0 72
0 24 88 c13 48 32 118 43 157 11 38 22 78 24 90 2 11 12 50 23 88 l20 67 -68
0 -67 0 -34 -175 c-19 -96 -37 -172 -40 -167 -4 4 -24 82 -45 175 l-38 167
-74 0 c-51 0 -73 -4 -74 -12 -1 -17 -4 -30 -28 -118 -12 -41 -29 -108 -38
-148 -9 -40 -19 -69 -23 -65 -4 4 -12 40 -18 78 -7 39 -14 81 -17 95 -3 14
-10 54 -16 89 -5 36 -12 68 -15 73 -9 14 -134 10 -133 -4z"/>
</g>
</svg>
